<mxfile host="app.diagrams.net" agent="Mozilla/5.0 (Macintosh; Intel Mac OS X 10_15_7) AppleWebKit/537.36 (KHTML, like Gecko) Chrome/127.0.0.0 Safari/537.36" version="24.7.10">
  <diagram name="第 1 页" id="YfjnFncdKknPi8jD7Qkr">
    <mxGraphModel dx="1242" dy="785" grid="1" gridSize="10" guides="1" tooltips="1" connect="1" arrows="1" fold="1" page="1" pageScale="1" pageWidth="827" pageHeight="1169" math="0" shadow="0">
      <root>
        <mxCell id="0" />
        <mxCell id="1" parent="0" />
        <mxCell id="DD_p6ofPxQoDQTtxkQCP-1" value="" style="whiteSpace=wrap;html=1;" vertex="1" parent="1">
          <mxGeometry x="230" y="1270" width="700" height="110" as="geometry" />
        </mxCell>
        <mxCell id="DD_p6ofPxQoDQTtxkQCP-2" value="" style="whiteSpace=wrap;html=1;" vertex="1" parent="1">
          <mxGeometry x="520" y="1160" width="270" height="80" as="geometry" />
        </mxCell>
        <mxCell id="DD_p6ofPxQoDQTtxkQCP-3" value="" style="whiteSpace=wrap;html=1;" vertex="1" parent="1">
          <mxGeometry x="100" y="1160" width="260" height="80" as="geometry" />
        </mxCell>
        <mxCell id="DD_p6ofPxQoDQTtxkQCP-4" value="" style="whiteSpace=wrap;html=1;" vertex="1" parent="1">
          <mxGeometry x="375" y="990" width="415" height="80" as="geometry" />
        </mxCell>
        <mxCell id="DD_p6ofPxQoDQTtxkQCP-5" value="" style="whiteSpace=wrap;html=1;" vertex="1" parent="1">
          <mxGeometry x="105" y="990" width="255" height="80" as="geometry" />
        </mxCell>
        <mxCell id="DD_p6ofPxQoDQTtxkQCP-6" value="" style="whiteSpace=wrap;html=1;" vertex="1" parent="1">
          <mxGeometry x="110" y="850" width="710" height="100" as="geometry" />
        </mxCell>
        <mxCell id="DD_p6ofPxQoDQTtxkQCP-7" style="edgeStyle=orthogonalEdgeStyle;rounded=0;orthogonalLoop=1;jettySize=auto;html=1;exitX=1;exitY=0.5;exitDx=0;exitDy=0;entryX=0;entryY=0.5;entryDx=0;entryDy=0;" edge="1" parent="1" source="DD_p6ofPxQoDQTtxkQCP-8" target="DD_p6ofPxQoDQTtxkQCP-10">
          <mxGeometry relative="1" as="geometry" />
        </mxCell>
        <mxCell id="DD_p6ofPxQoDQTtxkQCP-8" value="原始日志收集" style="whiteSpace=wrap;html=1;" vertex="1" parent="1">
          <mxGeometry x="120" y="760" width="90" height="40" as="geometry" />
        </mxCell>
        <mxCell id="DD_p6ofPxQoDQTtxkQCP-9" style="edgeStyle=orthogonalEdgeStyle;rounded=0;orthogonalLoop=1;jettySize=auto;html=1;exitX=1;exitY=0.5;exitDx=0;exitDy=0;entryX=0;entryY=0.5;entryDx=0;entryDy=0;" edge="1" parent="1" source="DD_p6ofPxQoDQTtxkQCP-10" target="DD_p6ofPxQoDQTtxkQCP-12">
          <mxGeometry relative="1" as="geometry" />
        </mxCell>
        <mxCell id="DD_p6ofPxQoDQTtxkQCP-10" value="日志预加工" style="whiteSpace=wrap;html=1;" vertex="1" parent="1">
          <mxGeometry x="260" y="760" width="90" height="40" as="geometry" />
        </mxCell>
        <mxCell id="DD_p6ofPxQoDQTtxkQCP-11" style="edgeStyle=orthogonalEdgeStyle;rounded=0;orthogonalLoop=1;jettySize=auto;html=1;exitX=1;exitY=0.5;exitDx=0;exitDy=0;entryX=0;entryY=0.5;entryDx=0;entryDy=0;" edge="1" parent="1" source="DD_p6ofPxQoDQTtxkQCP-12" target="DD_p6ofPxQoDQTtxkQCP-14">
          <mxGeometry relative="1" as="geometry" />
        </mxCell>
        <mxCell id="DD_p6ofPxQoDQTtxkQCP-12" value="日志缓存" style="whiteSpace=wrap;html=1;" vertex="1" parent="1">
          <mxGeometry x="400" y="760" width="90" height="40" as="geometry" />
        </mxCell>
        <mxCell id="DD_p6ofPxQoDQTtxkQCP-13" style="edgeStyle=orthogonalEdgeStyle;rounded=0;orthogonalLoop=1;jettySize=auto;html=1;exitX=1;exitY=0.5;exitDx=0;exitDy=0;entryX=0;entryY=0.5;entryDx=0;entryDy=0;" edge="1" parent="1" source="DD_p6ofPxQoDQTtxkQCP-14" target="DD_p6ofPxQoDQTtxkQCP-16">
          <mxGeometry relative="1" as="geometry" />
        </mxCell>
        <mxCell id="DD_p6ofPxQoDQTtxkQCP-14" value="日志存储适配" style="whiteSpace=wrap;html=1;" vertex="1" parent="1">
          <mxGeometry x="545" y="760" width="90" height="40" as="geometry" />
        </mxCell>
        <mxCell id="DD_p6ofPxQoDQTtxkQCP-15" style="edgeStyle=orthogonalEdgeStyle;rounded=0;orthogonalLoop=1;jettySize=auto;html=1;exitX=1;exitY=0.5;exitDx=0;exitDy=0;entryX=0;entryY=0.5;entryDx=0;entryDy=0;" edge="1" parent="1" source="DD_p6ofPxQoDQTtxkQCP-16" target="DD_p6ofPxQoDQTtxkQCP-17">
          <mxGeometry relative="1" as="geometry" />
        </mxCell>
        <mxCell id="DD_p6ofPxQoDQTtxkQCP-16" value="存储写入通道" style="whiteSpace=wrap;html=1;" vertex="1" parent="1">
          <mxGeometry x="700" y="760" width="90" height="40" as="geometry" />
        </mxCell>
        <mxCell id="DD_p6ofPxQoDQTtxkQCP-17" value="存储" style="whiteSpace=wrap;html=1;" vertex="1" parent="1">
          <mxGeometry x="850" y="760" width="90" height="40" as="geometry" />
        </mxCell>
        <mxCell id="DD_p6ofPxQoDQTtxkQCP-18" style="edgeStyle=orthogonalEdgeStyle;rounded=0;orthogonalLoop=1;jettySize=auto;html=1;exitX=1;exitY=0.5;exitDx=0;exitDy=0;entryX=0;entryY=0.5;entryDx=0;entryDy=0;" edge="1" parent="1" source="DD_p6ofPxQoDQTtxkQCP-19" target="DD_p6ofPxQoDQTtxkQCP-21">
          <mxGeometry relative="1" as="geometry" />
        </mxCell>
        <mxCell id="DD_p6ofPxQoDQTtxkQCP-19" value="原始日志收集" style="whiteSpace=wrap;html=1;" vertex="1" parent="1">
          <mxGeometry x="120" y="900" width="90" height="40" as="geometry" />
        </mxCell>
        <mxCell id="DD_p6ofPxQoDQTtxkQCP-20" style="edgeStyle=orthogonalEdgeStyle;rounded=0;orthogonalLoop=1;jettySize=auto;html=1;exitX=1;exitY=0.5;exitDx=0;exitDy=0;entryX=0;entryY=0.5;entryDx=0;entryDy=0;" edge="1" parent="1" source="DD_p6ofPxQoDQTtxkQCP-21" target="DD_p6ofPxQoDQTtxkQCP-23">
          <mxGeometry relative="1" as="geometry" />
        </mxCell>
        <mxCell id="DD_p6ofPxQoDQTtxkQCP-21" value="日志预加工" style="whiteSpace=wrap;html=1;" vertex="1" parent="1">
          <mxGeometry x="260" y="900" width="90" height="40" as="geometry" />
        </mxCell>
        <mxCell id="DD_p6ofPxQoDQTtxkQCP-22" style="edgeStyle=orthogonalEdgeStyle;rounded=0;orthogonalLoop=1;jettySize=auto;html=1;exitX=1;exitY=0.5;exitDx=0;exitDy=0;entryX=0;entryY=0.5;entryDx=0;entryDy=0;" edge="1" parent="1" source="DD_p6ofPxQoDQTtxkQCP-23" target="DD_p6ofPxQoDQTtxkQCP-25">
          <mxGeometry relative="1" as="geometry" />
        </mxCell>
        <mxCell id="DD_p6ofPxQoDQTtxkQCP-23" value="日志缓存" style="whiteSpace=wrap;html=1;" vertex="1" parent="1">
          <mxGeometry x="400" y="900" width="90" height="40" as="geometry" />
        </mxCell>
        <mxCell id="DD_p6ofPxQoDQTtxkQCP-24" style="edgeStyle=orthogonalEdgeStyle;rounded=0;orthogonalLoop=1;jettySize=auto;html=1;exitX=1;exitY=0.5;exitDx=0;exitDy=0;entryX=0;entryY=0.5;entryDx=0;entryDy=0;" edge="1" parent="1" source="DD_p6ofPxQoDQTtxkQCP-25" target="DD_p6ofPxQoDQTtxkQCP-27">
          <mxGeometry relative="1" as="geometry" />
        </mxCell>
        <mxCell id="DD_p6ofPxQoDQTtxkQCP-25" value="日志存储适配" style="whiteSpace=wrap;html=1;" vertex="1" parent="1">
          <mxGeometry x="545" y="900" width="90" height="40" as="geometry" />
        </mxCell>
        <mxCell id="DD_p6ofPxQoDQTtxkQCP-26" style="edgeStyle=orthogonalEdgeStyle;rounded=0;orthogonalLoop=1;jettySize=auto;html=1;exitX=1;exitY=0.5;exitDx=0;exitDy=0;entryX=0;entryY=0.5;entryDx=0;entryDy=0;" edge="1" parent="1" source="DD_p6ofPxQoDQTtxkQCP-27" target="DD_p6ofPxQoDQTtxkQCP-28">
          <mxGeometry relative="1" as="geometry" />
        </mxCell>
        <mxCell id="DD_p6ofPxQoDQTtxkQCP-27" value="存储写入通道" style="whiteSpace=wrap;html=1;" vertex="1" parent="1">
          <mxGeometry x="700" y="900" width="90" height="40" as="geometry" />
        </mxCell>
        <mxCell id="DD_p6ofPxQoDQTtxkQCP-28" value="存储" style="whiteSpace=wrap;html=1;" vertex="1" parent="1">
          <mxGeometry x="850" y="900" width="90" height="40" as="geometry" />
        </mxCell>
        <mxCell id="DD_p6ofPxQoDQTtxkQCP-29" value="server" style="text;html=1;align=center;verticalAlign=middle;resizable=0;points=[];autosize=1;strokeColor=none;fillColor=none;" vertex="1" parent="1">
          <mxGeometry x="460" y="850" width="60" height="30" as="geometry" />
        </mxCell>
        <mxCell id="DD_p6ofPxQoDQTtxkQCP-30" style="edgeStyle=orthogonalEdgeStyle;rounded=0;orthogonalLoop=1;jettySize=auto;html=1;exitX=1;exitY=0.5;exitDx=0;exitDy=0;entryX=0;entryY=0.5;entryDx=0;entryDy=0;" edge="1" parent="1" source="DD_p6ofPxQoDQTtxkQCP-31" target="DD_p6ofPxQoDQTtxkQCP-33">
          <mxGeometry relative="1" as="geometry" />
        </mxCell>
        <mxCell id="DD_p6ofPxQoDQTtxkQCP-31" value="原始日志收集" style="whiteSpace=wrap;html=1;" vertex="1" parent="1">
          <mxGeometry x="110" y="1020" width="90" height="40" as="geometry" />
        </mxCell>
        <mxCell id="DD_p6ofPxQoDQTtxkQCP-32" style="edgeStyle=orthogonalEdgeStyle;rounded=0;orthogonalLoop=1;jettySize=auto;html=1;exitX=1;exitY=0.5;exitDx=0;exitDy=0;entryX=0;entryY=0.5;entryDx=0;entryDy=0;" edge="1" parent="1" source="DD_p6ofPxQoDQTtxkQCP-33" target="DD_p6ofPxQoDQTtxkQCP-35">
          <mxGeometry relative="1" as="geometry" />
        </mxCell>
        <mxCell id="DD_p6ofPxQoDQTtxkQCP-33" value="日志预加工" style="whiteSpace=wrap;html=1;" vertex="1" parent="1">
          <mxGeometry x="250" y="1020" width="90" height="40" as="geometry" />
        </mxCell>
        <mxCell id="DD_p6ofPxQoDQTtxkQCP-34" style="edgeStyle=orthogonalEdgeStyle;rounded=0;orthogonalLoop=1;jettySize=auto;html=1;exitX=1;exitY=0.5;exitDx=0;exitDy=0;entryX=0;entryY=0.5;entryDx=0;entryDy=0;" edge="1" parent="1" source="DD_p6ofPxQoDQTtxkQCP-35" target="DD_p6ofPxQoDQTtxkQCP-37">
          <mxGeometry relative="1" as="geometry" />
        </mxCell>
        <mxCell id="DD_p6ofPxQoDQTtxkQCP-35" value="日志缓存" style="whiteSpace=wrap;html=1;" vertex="1" parent="1">
          <mxGeometry x="390" y="1020" width="90" height="40" as="geometry" />
        </mxCell>
        <mxCell id="DD_p6ofPxQoDQTtxkQCP-36" style="edgeStyle=orthogonalEdgeStyle;rounded=0;orthogonalLoop=1;jettySize=auto;html=1;exitX=1;exitY=0.5;exitDx=0;exitDy=0;entryX=0;entryY=0.5;entryDx=0;entryDy=0;" edge="1" parent="1" source="DD_p6ofPxQoDQTtxkQCP-37" target="DD_p6ofPxQoDQTtxkQCP-39">
          <mxGeometry relative="1" as="geometry" />
        </mxCell>
        <mxCell id="DD_p6ofPxQoDQTtxkQCP-37" value="日志存储适配" style="whiteSpace=wrap;html=1;" vertex="1" parent="1">
          <mxGeometry x="535" y="1020" width="90" height="40" as="geometry" />
        </mxCell>
        <mxCell id="DD_p6ofPxQoDQTtxkQCP-38" style="edgeStyle=orthogonalEdgeStyle;rounded=0;orthogonalLoop=1;jettySize=auto;html=1;exitX=1;exitY=0.5;exitDx=0;exitDy=0;entryX=0;entryY=0.5;entryDx=0;entryDy=0;" edge="1" parent="1" source="DD_p6ofPxQoDQTtxkQCP-39" target="DD_p6ofPxQoDQTtxkQCP-40">
          <mxGeometry relative="1" as="geometry" />
        </mxCell>
        <mxCell id="DD_p6ofPxQoDQTtxkQCP-39" value="存储写入通道" style="whiteSpace=wrap;html=1;" vertex="1" parent="1">
          <mxGeometry x="690" y="1020" width="90" height="40" as="geometry" />
        </mxCell>
        <mxCell id="DD_p6ofPxQoDQTtxkQCP-40" value="存储" style="whiteSpace=wrap;html=1;" vertex="1" parent="1">
          <mxGeometry x="840" y="1020" width="90" height="40" as="geometry" />
        </mxCell>
        <mxCell id="DD_p6ofPxQoDQTtxkQCP-41" value="server" style="text;html=1;align=center;verticalAlign=middle;resizable=0;points=[];autosize=1;strokeColor=none;fillColor=none;" vertex="1" parent="1">
          <mxGeometry x="200" y="990" width="60" height="30" as="geometry" />
        </mxCell>
        <mxCell id="DD_p6ofPxQoDQTtxkQCP-42" value="写入通道" style="text;html=1;align=center;verticalAlign=middle;resizable=0;points=[];autosize=1;strokeColor=none;fillColor=none;" vertex="1" parent="1">
          <mxGeometry x="535" y="990" width="70" height="30" as="geometry" />
        </mxCell>
        <mxCell id="DD_p6ofPxQoDQTtxkQCP-43" style="edgeStyle=orthogonalEdgeStyle;rounded=0;orthogonalLoop=1;jettySize=auto;html=1;exitX=1;exitY=0.5;exitDx=0;exitDy=0;entryX=0;entryY=0.5;entryDx=0;entryDy=0;" edge="1" parent="1" source="DD_p6ofPxQoDQTtxkQCP-44" target="DD_p6ofPxQoDQTtxkQCP-46">
          <mxGeometry relative="1" as="geometry" />
        </mxCell>
        <mxCell id="DD_p6ofPxQoDQTtxkQCP-44" value="原始日志收集" style="whiteSpace=wrap;html=1;" vertex="1" parent="1">
          <mxGeometry x="105" y="1190" width="90" height="40" as="geometry" />
        </mxCell>
        <mxCell id="DD_p6ofPxQoDQTtxkQCP-45" style="edgeStyle=orthogonalEdgeStyle;rounded=0;orthogonalLoop=1;jettySize=auto;html=1;exitX=1;exitY=0.5;exitDx=0;exitDy=0;entryX=0;entryY=0.5;entryDx=0;entryDy=0;" edge="1" parent="1" source="DD_p6ofPxQoDQTtxkQCP-46" target="DD_p6ofPxQoDQTtxkQCP-48">
          <mxGeometry relative="1" as="geometry" />
        </mxCell>
        <mxCell id="DD_p6ofPxQoDQTtxkQCP-46" value="日志预加工" style="whiteSpace=wrap;html=1;" vertex="1" parent="1">
          <mxGeometry x="245" y="1190" width="90" height="40" as="geometry" />
        </mxCell>
        <mxCell id="DD_p6ofPxQoDQTtxkQCP-47" style="edgeStyle=orthogonalEdgeStyle;rounded=0;orthogonalLoop=1;jettySize=auto;html=1;exitX=1;exitY=0.5;exitDx=0;exitDy=0;entryX=0;entryY=0.5;entryDx=0;entryDy=0;" edge="1" parent="1" source="DD_p6ofPxQoDQTtxkQCP-48" target="DD_p6ofPxQoDQTtxkQCP-50">
          <mxGeometry relative="1" as="geometry" />
        </mxCell>
        <mxCell id="DD_p6ofPxQoDQTtxkQCP-48" value="日志缓存" style="whiteSpace=wrap;html=1;" vertex="1" parent="1">
          <mxGeometry x="385" y="1190" width="90" height="40" as="geometry" />
        </mxCell>
        <mxCell id="DD_p6ofPxQoDQTtxkQCP-49" style="edgeStyle=orthogonalEdgeStyle;rounded=0;orthogonalLoop=1;jettySize=auto;html=1;exitX=1;exitY=0.5;exitDx=0;exitDy=0;entryX=0;entryY=0.5;entryDx=0;entryDy=0;" edge="1" parent="1" source="DD_p6ofPxQoDQTtxkQCP-50" target="DD_p6ofPxQoDQTtxkQCP-52">
          <mxGeometry relative="1" as="geometry" />
        </mxCell>
        <mxCell id="DD_p6ofPxQoDQTtxkQCP-50" value="日志存储适配" style="whiteSpace=wrap;html=1;" vertex="1" parent="1">
          <mxGeometry x="530" y="1190" width="90" height="40" as="geometry" />
        </mxCell>
        <mxCell id="DD_p6ofPxQoDQTtxkQCP-51" style="edgeStyle=orthogonalEdgeStyle;rounded=0;orthogonalLoop=1;jettySize=auto;html=1;exitX=1;exitY=0.5;exitDx=0;exitDy=0;entryX=0;entryY=0.5;entryDx=0;entryDy=0;" edge="1" parent="1" source="DD_p6ofPxQoDQTtxkQCP-52" target="DD_p6ofPxQoDQTtxkQCP-53">
          <mxGeometry relative="1" as="geometry" />
        </mxCell>
        <mxCell id="DD_p6ofPxQoDQTtxkQCP-52" value="存储写入通道" style="whiteSpace=wrap;html=1;" vertex="1" parent="1">
          <mxGeometry x="685" y="1190" width="90" height="40" as="geometry" />
        </mxCell>
        <mxCell id="DD_p6ofPxQoDQTtxkQCP-53" value="存储" style="whiteSpace=wrap;html=1;" vertex="1" parent="1">
          <mxGeometry x="835" y="1190" width="90" height="40" as="geometry" />
        </mxCell>
        <mxCell id="DD_p6ofPxQoDQTtxkQCP-54" value="server" style="text;html=1;align=center;verticalAlign=middle;resizable=0;points=[];autosize=1;strokeColor=none;fillColor=none;" vertex="1" parent="1">
          <mxGeometry x="195" y="1160" width="60" height="30" as="geometry" />
        </mxCell>
        <mxCell id="DD_p6ofPxQoDQTtxkQCP-55" value="写入通道" style="text;html=1;align=center;verticalAlign=middle;resizable=0;points=[];autosize=1;strokeColor=none;fillColor=none;" vertex="1" parent="1">
          <mxGeometry x="620" y="1160" width="70" height="30" as="geometry" />
        </mxCell>
        <mxCell id="DD_p6ofPxQoDQTtxkQCP-56" style="edgeStyle=orthogonalEdgeStyle;rounded=0;orthogonalLoop=1;jettySize=auto;html=1;exitX=1;exitY=0.5;exitDx=0;exitDy=0;entryX=0;entryY=0.5;entryDx=0;entryDy=0;" edge="1" parent="1" source="DD_p6ofPxQoDQTtxkQCP-57" target="DD_p6ofPxQoDQTtxkQCP-59">
          <mxGeometry relative="1" as="geometry" />
        </mxCell>
        <mxCell id="DD_p6ofPxQoDQTtxkQCP-57" value="原始日志收集" style="whiteSpace=wrap;html=1;" vertex="1" parent="1">
          <mxGeometry x="100" y="1320" width="90" height="40" as="geometry" />
        </mxCell>
        <mxCell id="DD_p6ofPxQoDQTtxkQCP-58" style="edgeStyle=orthogonalEdgeStyle;rounded=0;orthogonalLoop=1;jettySize=auto;html=1;exitX=1;exitY=0.5;exitDx=0;exitDy=0;entryX=0;entryY=0.5;entryDx=0;entryDy=0;" edge="1" parent="1" source="DD_p6ofPxQoDQTtxkQCP-59" target="DD_p6ofPxQoDQTtxkQCP-61">
          <mxGeometry relative="1" as="geometry" />
        </mxCell>
        <mxCell id="DD_p6ofPxQoDQTtxkQCP-59" value="日志预加工" style="whiteSpace=wrap;html=1;" vertex="1" parent="1">
          <mxGeometry x="240" y="1320" width="90" height="40" as="geometry" />
        </mxCell>
        <mxCell id="DD_p6ofPxQoDQTtxkQCP-60" style="edgeStyle=orthogonalEdgeStyle;rounded=0;orthogonalLoop=1;jettySize=auto;html=1;exitX=1;exitY=0.5;exitDx=0;exitDy=0;entryX=0;entryY=0.5;entryDx=0;entryDy=0;" edge="1" parent="1" source="DD_p6ofPxQoDQTtxkQCP-61" target="DD_p6ofPxQoDQTtxkQCP-63">
          <mxGeometry relative="1" as="geometry" />
        </mxCell>
        <mxCell id="DD_p6ofPxQoDQTtxkQCP-61" value="日志缓存" style="whiteSpace=wrap;html=1;" vertex="1" parent="1">
          <mxGeometry x="380" y="1320" width="90" height="40" as="geometry" />
        </mxCell>
        <mxCell id="DD_p6ofPxQoDQTtxkQCP-62" style="edgeStyle=orthogonalEdgeStyle;rounded=0;orthogonalLoop=1;jettySize=auto;html=1;exitX=1;exitY=0.5;exitDx=0;exitDy=0;entryX=0;entryY=0.5;entryDx=0;entryDy=0;" edge="1" parent="1" source="DD_p6ofPxQoDQTtxkQCP-63" target="DD_p6ofPxQoDQTtxkQCP-65">
          <mxGeometry relative="1" as="geometry" />
        </mxCell>
        <mxCell id="DD_p6ofPxQoDQTtxkQCP-63" value="日志存储适配" style="whiteSpace=wrap;html=1;" vertex="1" parent="1">
          <mxGeometry x="525" y="1320" width="90" height="40" as="geometry" />
        </mxCell>
        <mxCell id="DD_p6ofPxQoDQTtxkQCP-64" style="edgeStyle=orthogonalEdgeStyle;rounded=0;orthogonalLoop=1;jettySize=auto;html=1;exitX=1;exitY=0.5;exitDx=0;exitDy=0;entryX=0;entryY=0.5;entryDx=0;entryDy=0;" edge="1" parent="1" source="DD_p6ofPxQoDQTtxkQCP-65" target="DD_p6ofPxQoDQTtxkQCP-66">
          <mxGeometry relative="1" as="geometry" />
        </mxCell>
        <mxCell id="DD_p6ofPxQoDQTtxkQCP-65" value="存储写入通道" style="whiteSpace=wrap;html=1;" vertex="1" parent="1">
          <mxGeometry x="680" y="1320" width="90" height="40" as="geometry" />
        </mxCell>
        <mxCell id="DD_p6ofPxQoDQTtxkQCP-66" value="存储" style="whiteSpace=wrap;html=1;" vertex="1" parent="1">
          <mxGeometry x="830" y="1320" width="90" height="40" as="geometry" />
        </mxCell>
        <mxCell id="DD_p6ofPxQoDQTtxkQCP-67" value="写入适配+存储" style="text;html=1;align=center;verticalAlign=middle;resizable=0;points=[];autosize=1;strokeColor=none;fillColor=none;" vertex="1" parent="1">
          <mxGeometry x="570" y="1270" width="100" height="30" as="geometry" />
        </mxCell>
      </root>
    </mxGraphModel>
  </diagram>
</mxfile>
